<svg id="Capa_1" data-name="Capa 1" xmlns="http://www.w3.org/2000/svg" viewBox="0 0 1080 1080"><defs><style>.cls-1{fill:#efefef;}</style></defs><path class="cls-1" d="M754.8,452.26c-15.34-1.09-17.66,10.9-18.51,22.85-2.11,29.62-8.57,58.08-23.16,84.22-29,51.9-72,85.51-130.22,98.83-15,3.44-27.89,0-33.61-15.9s1.52-26.66,15.48-33.71c6.67-3.38,13.8-5.83,20.64-8.88,9.87-4.39,21.8-8.87,15.85-22.65-5.31-12.29-16.22-8.44-25.92-4.46-19.08,7.82-38.23,15.46-57.29,23.34-9.43,3.9-17.78,3.08-22-6.94-4.35-10.43,2.14-16.34,11.19-20.09,11-4.55,22-8.84,32.87-13.69,9.34-4.18,19.9-9.22,14.61-21.89s-15.81-9-25.58-4.82c-28.74,12.23-57.35,24.79-86.37,36.31-18.42,7.31-31.52,2.46-38-12.11-6.19-13.87.38-27,18.66-35.08,26.84-11.92,53.95-23.21,80.92-34.84,9.2-4,17.8-9.43,12.8-21-4.86-11.26-14.45-9.56-24-5.57-15,6.27-30,12.45-45.16,18.24-8.59,3.28-18.89,8.76-24-3.93-4.81-11.9,6.15-14.51,13.84-18.07,8.49-3.94,17.32-7.14,25.84-11,8.34-3.8,16.62-8.89,12.5-19.68-4.31-11.28-13.76-11.32-23.49-7-8.16,3.68-16.83,5.39-20.94-4.22-4.89-11.46,4.94-14.94,13.16-18.36,16.16-6.71,32.45-13.12,48.46-20.15,8.27-3.62,13.28-10.23,9.82-19.56-3.62-9.77-11.68-10.1-20.23-7-7.64,2.76-15.07,6.16-22.78,8.7-18,5.94-31.49,1-38.07-13.47s-2.19-29,13.35-38.54c58.43-35.7,119.61-41.06,182.94-14.51,36.15,15.16,64.52,40,86.49,72.38,6.14,9.06,15.16,14.47,25.64,7.32,10.83-7.39,7.18-17.26,1.73-26.47a88,88,0,0,0-5.32-7.71c-46.45-62.37-108.71-93.79-189.75-95.63-9.09.81-21.74.8-33.92,3.2C408.69,259.43,344.83,315,319.19,407.29c-25.3,91.12.25,171.57,72,233.57,70.71,61.13,153.18,73.54,238.5,37.49C716.56,641.61,762.78,572,770.08,477.52,771,465.72,770.09,453.34,754.8,452.26Zm-292,166.2a11.76,11.76,0,1,1,11.76-11.76A11.77,11.77,0,0,1,462.8,618.46ZM811,286.19c7.06.55,17.21.38,26.95,2.28,29.32,5.72,38,29.63,19.42,53-13.4,16.83-30.67,29.35-48.58,40.86C730,432.91,644.25,468.85,557,501.68c-10.26,3.86-20.68,5.85-24.68-7.23-3.58-11.69,5.53-16.08,15-19.68,72.45-27.49,144-56.93,211.34-95.76,24.9-14.37,49.82-28.81,70.59-49.11,3-2.9,8-6,5.31-10.63-1.46-2.49-6.45-3.55-10-4-13.75-1.93-27.45-.22-41.11,1.46-10.54,1.3-19.78-1.14-21-13C761.4,292.31,771,289.4,780,288.22,789.23,287,798.66,286.94,811,286.19ZM294.69,547.55c9.19-1.32,16.68.61,18.89,10.46,2.53,11.29-5,16.3-14.44,17.79-28.35,4.49-56.73,9.6-85.62,4.76-13.41-2.25-26.06-6.32-31-20.62-4.78-13.93,1.22-25.68,10.17-36.07C203.84,511,217.5,501,231.35,491.41c7.73-5.37,16.41-8.53,23.15.73,6.61,9.09,1.63,16.33-6.15,22.22-8.46,6.41-17,12.67-25.14,19.53-4.57,3.87-11.64,8.07-8.92,14.91,2.21,5.54,9.64,4.57,15.23,4.79C233.26,553.74,276.78,550.11,294.69,547.55Zm351.65,24.6-7.64,3.11a14.47,14.47,0,0,1-18.82-7.93h0a14.49,14.49,0,0,1,7.93-18.83l7.64-3.11a14.5,14.5,0,0,1,18.83,7.94h0A14.49,14.49,0,0,1,646.34,572.15ZM526.27,412.66l-14.61,5.94a14.48,14.48,0,0,1-18.82-7.93h0a14.47,14.47,0,0,1,7.93-18.82l14.61-6a14.47,14.47,0,0,1,18.82,7.93h0A14.49,14.49,0,0,1,526.27,412.66Z"/><path class="cls-1" d="M262.05,901.38a46.71,46.71,0,0,1-12.64-1.69,33.57,33.57,0,0,1-10.66-5.07,25.1,25.1,0,0,1-7.39-8.39,25.71,25.71,0,0,1-3-11.65,2.57,2.57,0,0,1,.69-1.8A2.41,2.41,0,0,1,231,872h15.73a3.5,3.5,0,0,1,2.5.82,6.15,6.15,0,0,1,1.46,2.44,12.91,12.91,0,0,0,2.27,5.3,9.38,9.38,0,0,0,4.07,3,15.29,15.29,0,0,0,5.65,1q5.83,0,9-3.78t3.15-11.13V836H237a2.9,2.9,0,0,1-2-.81,2.75,2.75,0,0,1-.88-2.1V821.58a2.78,2.78,0,0,1,.88-2.1,2.9,2.9,0,0,1,2-.81h56.38a3,3,0,0,1,2.15.81,2.74,2.74,0,0,1,.88,2.1v48.69q0,10.14-4.37,17.07a27.44,27.44,0,0,1-12.12,10.48A42.43,42.43,0,0,1,262.05,901.38Z"/><path class="cls-1" d="M346.27,901.38a45.83,45.83,0,0,1-18.46-3.44,25.92,25.92,0,0,1-12.17-10.6q-4.32-7.17-4.31-18.23V821.58a2.78,2.78,0,0,1,2.91-2.91h15a3,3,0,0,1,2.15.81,2.78,2.78,0,0,1,.88,2.1V869q0,7.57,3.61,11.36t10.25,3.79q6.52,0,10.19-3.79T360,869V821.58a2.77,2.77,0,0,1,.87-2.1,2.93,2.93,0,0,1,2-.81h15.15a2.93,2.93,0,0,1,2,.81,2.77,2.77,0,0,1,.87,2.1v47.53q0,11.07-4.31,18.23a26,26,0,0,1-12.12,10.6A45.08,45.08,0,0,1,346.27,901.38Z"/><path class="cls-1" d="M399.39,900.21a2.73,2.73,0,0,1-2.09-.87,2.86,2.86,0,0,1-.82-2V821.58a2.79,2.79,0,0,1,2.91-2.91H432a43.71,43.71,0,0,1,16.83,3A24.4,24.4,0,0,1,460,830.55q4,5.94,4,15t-4,14.79A23.55,23.55,0,0,1,448.84,869a46,46,0,0,1-16.83,2.8H418.15V897.3a2.79,2.79,0,0,1-.87,2,3,3,0,0,1-2.16.87Zm18.41-44.5h13.63a11.79,11.79,0,0,0,8-2.56q3-2.56,3-7.81a11.18,11.18,0,0,0-2.56-7.45q-2.56-3-8.39-3H417.8Z"/><path class="cls-1" d="M496.78,900.21a3,3,0,0,1-2.91-2.91v-25l-27-49.86c-.07-.23-.15-.44-.23-.64a1.62,1.62,0,0,1-.12-.64,2.37,2.37,0,0,1,.76-1.69,2.49,2.49,0,0,1,1.81-.75h14.56a4,4,0,0,1,2.74.87,6,6,0,0,1,1.34,1.57l16.65,30.06,16.78-30.06a5.64,5.64,0,0,1,1.34-1.57,4,4,0,0,1,2.74-.87h14.56a2.3,2.3,0,0,1,1.75.75,2.46,2.46,0,0,1,.69,1.69,4.06,4.06,0,0,1-.05.64,4.85,4.85,0,0,1-.18.64l-27,49.86v25a2.79,2.79,0,0,1-.87,2,2.93,2.93,0,0,1-2.15.87Z"/><path class="cls-1" d="M573.08,900.21a2.73,2.73,0,0,1-2.09-.87,2.86,2.86,0,0,1-.82-2V837H549.44a2.71,2.71,0,0,1-2.1-.88,2.91,2.91,0,0,1-.82-2V821.58a2.88,2.88,0,0,1,.82-2.1,2.84,2.84,0,0,1,2.1-.81h62.67a2.78,2.78,0,0,1,2.91,2.91V834a2.9,2.9,0,0,1-.81,2,2.74,2.74,0,0,1-2.1.88H591.37V897.3a2.9,2.9,0,0,1-.81,2,2.75,2.75,0,0,1-2.1.87Z"/><path class="cls-1" d="M628.53,900.21a2.73,2.73,0,0,1-2.09-.87,2.86,2.86,0,0,1-.82-2V821.58a2.79,2.79,0,0,1,2.91-2.91h54.41a2.83,2.83,0,0,1,2.09.81,2.88,2.88,0,0,1,.82,2.1v10.95a2.86,2.86,0,0,1-.82,2.1,2.83,2.83,0,0,1-2.09.81H645.77v15.73h34.6a2.75,2.75,0,0,1,2.1.87,3.06,3.06,0,0,1,.82,2.16v10.13a2.91,2.91,0,0,1-.82,2,2.75,2.75,0,0,1-2.1.87h-34.6v16.2h38.1a2.79,2.79,0,0,1,2.91,2.91V897.3a2.86,2.86,0,0,1-.82,2,2.73,2.73,0,0,1-2.09.87Z"/><path class="cls-1" d="M732.79,901.38a45.31,45.31,0,0,1-18.87-3.61,27.63,27.63,0,0,1-12.29-10.61q-4.36-7-4.83-17.35c-.08-3.19-.12-6.6-.12-10.25s0-7.15.12-10.49a35.12,35.12,0,0,1,4.89-17.24A27.68,27.68,0,0,1,714,821.11a45,45,0,0,1,18.75-3.61A50.13,50.13,0,0,1,747,819.42a35.7,35.7,0,0,1,11.42,5.6,26.24,26.24,0,0,1,7.63,8.85,25.68,25.68,0,0,1,2.86,11.71,2,2,0,0,1-.65,1.74,2.53,2.53,0,0,1-1.8.7H750.73a3.69,3.69,0,0,1-2.33-.64A5,5,0,0,1,747,845q-1.62-6.16-5.3-8.44a16.75,16.75,0,0,0-9-2.27c-4.28,0-7.65,1.18-10.14,3.55s-3.84,6.31-4.08,11.82q-.35,9.55,0,19.57c.24,5.52,1.59,9.46,4.08,11.83s5.86,3.55,10.14,3.55a16.73,16.73,0,0,0,9.08-2.33q3.74-2.32,5.24-8.39a4.19,4.19,0,0,1,1.34-2.38,4,4,0,0,1,2.39-.64h15.73a2.57,2.57,0,0,1,1.8.69,2,2,0,0,1,.65,1.75A25.68,25.68,0,0,1,766.05,885a26.24,26.24,0,0,1-7.63,8.85A35.48,35.48,0,0,1,747,899.45,49.77,49.77,0,0,1,732.79,901.38Z"/><path class="cls-1" d="M784.05,900.21a2.78,2.78,0,0,1-2.91-2.91V821.58a2.78,2.78,0,0,1,2.91-2.91h15a3,3,0,0,1,2.15.81,2.78,2.78,0,0,1,.88,2.1v28.07h28.65V821.58a2.79,2.79,0,0,1,2.91-2.91h15a2.78,2.78,0,0,1,2.91,2.91V897.3a2.9,2.9,0,0,1-.81,2,2.75,2.75,0,0,1-2.1.87h-15a2.73,2.73,0,0,1-2.09-.87,2.86,2.86,0,0,1-.82-2v-29H802.11v29a2.8,2.8,0,0,1-.88,2,2.93,2.93,0,0,1-2.15.87Z"/></svg>