<svg id="Capa_1" data-name="Capa 1" xmlns="http://www.w3.org/2000/svg" viewBox="0 0 1080 1080"><defs><style>.cls-1{fill:#efefef;}</style></defs><path class="cls-1" d="M869.77,517.51c-21.92-1.56-25.24,15.57-26.45,32.65-3,42.32-12.25,83-33.09,120.33C768.86,744.64,707.38,792.67,624.17,811.7c-21.46,4.91-39.85-.05-48-22.72-8.09-22.47,2.19-38.09,22.12-48.17,9.54-4.81,19.72-8.33,29.5-12.68,14.1-6.27,31.15-12.68,22.64-32.36-7.59-17.56-23.17-12.07-37-6.38-27.25,11.18-54.62,22.09-81.84,33.35-13.48,5.57-25.41,4.4-31.38-9.92-6.22-14.9,3.05-23.33,16-28.7,15.67-6.5,31.5-12.63,47-19.56,13.34-6,28.43-13.17,20.87-31.28s-22.59-12.81-36.54-6.88c-41.07,17.48-81.95,35.42-123.41,51.88-26.32,10.45-45,3.51-54.31-17.3-8.84-19.82.55-38.52,26.67-50.12,38.34-17,77.08-33.17,115.61-49.79,13.14-5.67,25.43-13.47,18.29-30-6.95-16.09-20.65-13.67-34.28-8-21.39,9-42.85,17.79-64.52,26.06-12.28,4.68-27,12.52-34.33-5.62-6.88-17,8.78-20.72,19.77-25.81,12.13-5.62,24.75-10.2,36.93-15.75,11.91-5.43,23.74-12.7,17.85-28.11-6.16-16.12-19.66-16.19-33.56-9.93-11.67,5.25-24.05,7.7-29.92-6-7-16.37,7.06-21.35,18.8-26.23,23.08-9.6,46.36-18.75,69.25-28.79,11.81-5.19,19-14.63,14-27.95-5.18-14-16.7-14.43-28.92-10-10.92,3.95-21.52,8.8-32.54,12.44-25.69,8.48-45,1.45-54.4-19.25s-3.13-41.5,19.08-55.07c83.48-51,170.89-58.67,261.38-20.73,51.66,21.66,92.19,57.09,123.58,103.42,8.78,12.94,21.67,20.67,36.64,10.46,15.48-10.56,10.26-24.67,2.47-37.83a124.79,124.79,0,0,0-7.61-11c-66.36-89.11-155.33-134-271.12-136.63-13,1.16-31.06,1.14-48.45,4.58-135.15,26.68-226.4,106.07-263,238C211.22,583.45,247.72,698.4,350.19,787c101,87.34,218.86,105.07,340.76,53.55,124.19-52.49,190.22-151.9,200.64-286.94C892.89,536.75,891.61,519.06,869.77,517.51ZM452.56,755a16.8,16.8,0,1,1,16.8-16.8A16.8,16.8,0,0,1,452.56,755ZM950,280.23c10.08.79,24.58.55,38.5,3.26,41.9,8.18,54.32,42.34,27.75,75.69-19.15,24-43.83,41.93-69.42,58.37C834.33,489.87,711.81,541.21,587.19,588.12c-14.66,5.52-29.55,8.36-35.27-10.32-5.11-16.71,7.91-23,21.48-28.13,103.52-39.27,205.81-81.33,302-136.82,35.57-20.54,71.17-41.16,100.86-70.17,4.24-4.14,11.49-8.55,7.59-15.18-2.09-3.56-9.22-5.07-14.31-5.79-19.65-2.74-39.22-.3-58.74,2.1-15,1.86-28.26-1.63-29.95-18.56-1.63-16.28,12.07-20.44,24.89-22.12C919,281.38,932.43,281.3,950,280.23ZM212.36,653.66c13.13-1.88,23.83.87,27,15,3.62,16.13-7.21,23.28-20.63,25.41-40.5,6.42-81.06,13.72-122.34,6.8-19.16-3.21-37.23-9-44.23-29.45-6.83-19.92,1.74-36.7,14.53-51.54,15.87-18.4,35.39-32.62,55.18-46.38,11-7.68,23.45-12.19,33.08,1,9.45,13,2.33,23.33-8.79,31.76-12.08,9.15-24.36,18.1-35.92,27.89-6.52,5.54-16.64,11.54-12.74,21.3,3.15,7.93,13.78,6.54,21.75,6.85C124.59,662.51,186.77,657.32,212.36,653.66Zm508.18,32.82-22.39,9.11a14.49,14.49,0,0,1-18.83-7.93l-4.67-11.47a14.5,14.5,0,0,1,7.94-18.83L705,648.24a14.5,14.5,0,0,1,18.83,7.94l4.67,11.47A14.5,14.5,0,0,1,720.54,686.48ZM549,458.59l-32.34,13.17a14.5,14.5,0,0,1-18.83-7.94l-4.67-11.47a14.49,14.49,0,0,1,7.93-18.82l32.35-13.17a14.47,14.47,0,0,1,18.82,7.93l4.68,11.48A14.49,14.49,0,0,1,549,458.59Z"/></svg>